<?xml version="1.0" standalone="no"?>
<!DOCTYPE svg PUBLIC "-//W3C//DTD SVG 20010904//EN"
 "http://www.w3.org/TR/2001/REC-SVG-20010904/DTD/svg10.dtd">
<svg version="1.0" xmlns="http://www.w3.org/2000/svg"
 width="303.000000pt" height="280.000000pt" viewBox="0 0 303.000000 280.000000"
 preserveAspectRatio="xMidYMid meet">

<g transform="translate(0.000000,280.000000) scale(0.100000,-0.100000)"
fill="#000000" stroke="none">
<path d="M932 1488 l3 -673 525 0 525 0 3 673 2 672 -530 0 -530 0 2 -672z
m1018 2 l0 -630 -490 0 -490 0 0 623 c0 343 3 627 7 630 3 4 224 7 490 7 l483
0 0 -630z"/>
<path d="M1028 2058 c16 -16 16 -180 0 -196 -9 -9 -5 -12 20 -12 30 0 32 2 22
20 -6 11 -10 48 -8 83 l3 62 45 -80 c33 -58 52 -81 68 -83 21 -3 22 -1 22 95
0 64 4 103 12 111 9 9 5 12 -20 12 -30 0 -32 -2 -22 -20 6 -11 10 -46 8 -78
l-3 -57 -43 78 c-42 74 -45 77 -80 77 -28 0 -33 -3 -24 -12z"/>
<path d="M1260 2051 c14 -28 13 -174 -2 -189 -9 -9 6 -12 70 -12 l82 0 0 30
c0 35 -10 38 -28 10 -7 -11 -23 -20 -37 -20 -22 0 -25 4 -25 40 0 33 3 40 20
40 11 0 20 -4 20 -10 0 -5 5 -10 10 -10 6 0 10 16 10 35 0 36 -13 47 -24 20
-3 -8 -12 -15 -21 -15 -11 0 -15 11 -15 40 0 35 3 40 24 40 13 0 29 -7 36 -15
18 -22 30 -18 30 10 0 25 -1 25 -80 25 -77 0 -80 -1 -70 -19z"/>
<path d="M1440 2053 c6 -10 21 -58 34 -108 19 -75 26 -91 44 -93 18 -3 24 7
43 70 l22 73 9 -35 c5 -19 14 -52 19 -72 7 -27 15 -38 29 -38 18 0 35 35 70
145 7 22 16 44 21 50 16 17 10 25 -19 25 -25 0 -28 -3 -25 -27 2 -16 -5 -53
-15 -83 l-19 -55 -18 83 c-14 66 -21 82 -36 82 -14 0 -23 -17 -39 -69 -11 -37
-20 -74 -20 -82 -1 -26 -17 13 -29 70 -8 40 -8 57 0 67 9 12 3 14 -35 14 -41
0 -45 -2 -36 -17z"/>
<path d="M1782 2054 c-38 -26 -27 -72 26 -107 44 -30 57 -69 26 -81 -17 -7
-54 10 -54 24 0 6 -4 10 -10 10 -5 0 -10 -11 -10 -25 0 -24 3 -25 53 -25 61 0
87 19 87 63 0 21 -11 35 -45 59 -53 37 -63 78 -20 78 14 0 28 -7 31 -15 10
-24 36 -18 32 8 -3 19 -10 22 -48 25 -29 2 -53 -3 -68 -14z"/>
<path d="M1022 1788 l3 -23 438 -3 437 -2 0 25 0 25 -441 0 -440 0 3 -22z"/>
<path d="M1020 1515 l0 -185 188 2 187 3 3 183 2 182 -190 0 -190 0 0 -185z"/>
<path d="M1460 1680 c0 -19 7 -20 220 -20 213 0 220 1 220 20 0 19 -7 20 -220
20 -213 0 -220 -1 -220 -20z"/>
<path d="M1460 1570 c0 -19 7 -20 220 -20 213 0 220 1 220 20 0 19 -7 20 -220
20 -213 0 -220 -1 -220 -20z"/>
<path d="M1460 1465 l0 -25 221 0 220 0 -3 23 c-3 22 -3 22 -220 25 l-218 2 0
-25z"/>
<path d="M1460 1355 l0 -25 220 0 220 0 0 25 0 25 -220 0 -220 0 0 -25z"/>
<path d="M1020 1250 c0 -20 7 -20 440 -20 433 0 440 0 440 20 0 20 -7 20 -440
20 -433 0 -440 0 -440 -20z"/>
<path d="M1020 1140 c0 -20 7 -20 440 -20 433 0 440 0 440 20 0 20 -7 20 -440
20 -433 0 -440 0 -440 -20z"/>
<path d="M1027 1053 c-4 -3 -7 -15 -7 -25 0 -17 20 -18 440 -18 l440 0 0 25 0
25 -433 0 c-239 0 -437 -3 -440 -7z"/>
<path d="M1022 928 l3 -23 435 0 435 0 3 23 3 22 -441 0 -441 0 3 -22z"/>
<path d="M813 95 c0 -27 2 -38 4 -22 2 15 8 27 13 27 5 0 11 -12 13 -27 4 -26
4 -26 6 5 1 22 -4 32 -13 32 -8 0 -17 8 -19 18 -3 9 -5 -5 -4 -33z"/>
<path d="M1312 95 c0 -27 2 -43 5 -35 3 8 13 24 22 35 15 18 15 19 -1 7 -14
-12 -17 -10 -21 15 -2 16 -4 6 -5 -22z"/>
<path d="M930 120 c-4 -25 1 -54 10 -63 4 -5 5 3 3 17 -4 19 -1 26 10 26 9 0
17 -10 19 -22 2 -12 9 -23 16 -24 7 -1 8 0 2 3 -12 6 -13 40 -1 45 5 2 3 9 -5
16 -8 7 -14 8 -14 2 0 -14 -27 -13 -33 3 -4 8 -6 8 -7 -3z"/>
<path d="M1159 118 c-2 -25 3 -53 11 -62 5 -5 6 1 3 14 -3 12 -1 25 4 29 7 4
6 11 -3 19 -11 10 -14 10 -15 0z"/>
<path d="M1710 125 c-1 -5 -1 -21 0 -34 1 -13 -4 -28 -12 -32 -9 -6 -3 -9 17
-9 17 0 25 4 18 8 -6 4 -13 23 -16 42 -2 19 -5 31 -7 25z"/>
<path d="M1755 120 c-4 -6 1 -7 11 -3 13 5 16 3 11 -10 -3 -9 -2 -19 4 -22 14
-9 -1 -27 -18 -21 -8 3 -11 1 -8 -4 8 -14 32 -13 37 2 13 39 -18 88 -37 58z"/>
<path d="M1830 125 c-1 -5 -1 -21 0 -34 1 -13 -4 -28 -12 -32 -9 -6 -3 -9 17
-9 17 0 25 4 18 8 -6 4 -13 23 -16 42 -2 19 -5 31 -7 25z"/>
<path d="M1890 125 c-1 -5 -1 -21 0 -34 1 -13 -4 -28 -12 -32 -9 -6 -3 -9 17
-9 17 0 25 4 18 8 -6 4 -13 23 -16 42 -2 19 -5 31 -7 25z"/>
<path d="M1936 122 c-2 -4 4 -8 15 -8 10 0 19 4 19 8 0 10 -27 10 -34 0z"/>
<path d="M2000 106 c-15 -29 -8 -56 15 -56 23 0 31 31 12 45 -12 9 -14 14 -5
23 7 7 8 12 2 12 -6 0 -16 -11 -24 -24z m22 -31 c0 -5 -5 -11 -11 -13 -6 -2
-11 4 -11 13 0 9 5 15 11 13 6 -2 11 -8 11 -13z"/>
<path d="M2060 106 c-7 -14 -10 -32 -7 -40 7 -18 33 -21 42 -6 9 14 45 12 45
-2 0 -10 2 -10 8 0 5 7 6 27 4 44 l-5 32 -22 -26 c-18 -21 -25 -23 -38 -13
-12 9 -14 14 -5 23 7 7 8 12 2 12 -6 0 -16 -11 -24 -24z m76 -23 c-10 -10 -19
5 -10 18 6 11 8 11 12 0 2 -7 1 -15 -2 -18z m-54 -8 c0 -5 -5 -11 -11 -13 -6
-2 -11 4 -11 13 0 9 5 15 11 13 6 -2 11 -8 11 -13z"/>
<path d="M2190 125 c-1 -5 -1 -21 0 -34 1 -13 -4 -28 -12 -32 -9 -6 -3 -9 17
-9 17 0 25 4 18 8 -6 4 -13 23 -16 42 -2 19 -5 31 -7 25z"/>
<path d="M2242 105 c-22 -28 -23 -30 -5 -34 10 -2 21 -8 24 -13 10 -15 16 14
10 47 l-6 29 -23 -29z m14 -22 c-10 -10 -19 5 -10 18 6 11 8 11 12 0 2 -7 1
-15 -2 -18z"/>
<path d="M760 93 c0 -10 4 -14 8 -8 4 6 11 13 16 18 5 4 2 7 -7 7 -10 0 -17
-8 -17 -17z"/>
<path d="M871 83 c-1 -27 3 -33 19 -33 16 0 20 6 19 33 -2 30 -2 30 -6 5 -6
-36 -20 -36 -26 0 -4 25 -4 25 -6 -5z"/>
<path d="M1017 104 c-13 -13 -7 -24 14 -24 11 0 19 5 17 12 -5 14 -22 21 -31
12z"/>
<path d="M1071 78 c2 -28 2 -29 6 -8 3 14 10 28 17 32 7 5 5 8 -6 8 -14 0 -18
-8 -17 -32z"/>
<path d="M1110 93 c0 -10 4 -14 8 -8 4 6 11 13 16 18 5 4 2 7 -7 7 -10 0 -17
-8 -17 -17z"/>
<path d="M1204 95 c-8 -21 2 -45 20 -45 17 0 28 24 20 45 -4 8 -13 15 -20 15
-8 0 -17 -7 -20 -15z m31 -15 c0 -7 -6 -15 -12 -17 -8 -3 -13 4 -13 17 0 13 5
20 13 18 6 -3 12 -11 12 -18z"/>
<path d="M1264 95 c-8 -20 2 -45 18 -44 10 0 10 2 1 6 -7 2 -13 13 -13 23 0
10 6 21 13 23 9 4 9 6 -1 6 -7 1 -15 -6 -18 -14z"/>
<path d="M1404 95 c-8 -20 2 -45 18 -44 10 0 10 2 1 6 -7 2 -13 13 -13 23 0
10 6 21 13 23 9 4 9 6 -1 6 -7 1 -15 -6 -18 -14z"/>
<path d="M1454 95 c-8 -21 2 -45 20 -45 19 0 29 29 15 46 -15 18 -28 18 -35
-1z m31 -15 c0 -7 -6 -15 -12 -17 -8 -3 -13 4 -13 17 0 13 5 20 13 18 6 -3 12
-11 12 -18z"/>
<path d="M1511 77 c2 -31 2 -31 6 -4 2 15 8 27 13 27 5 0 11 -12 13 -27 l4
-28 2 28 c0 15 5 27 10 27 5 0 12 -12 14 -27 4 -27 4 -27 6 4 1 29 -1 31 -34
31 -33 0 -35 -2 -34 -31z"/>
<path d="M1947 82 c-24 -26 -21 -32 11 -31 16 1 20 3 10 6 -14 4 -16 8 -8 24
13 24 8 24 -13 1z"/>
<path d="M772 65 c-11 -12 -10 -15 3 -15 8 0 15 7 15 15 0 18 -2 18 -18 0z"/>
<path d="M1122 65 c-11 -12 -10 -15 3 -15 8 0 15 7 15 15 0 18 -2 18 -18 0z"/>
<path d="M1330 71 c0 -5 5 -13 10 -16 6 -3 10 -2 10 4 0 5 -4 13 -10 16 -5 3
-10 2 -10 -4z"/>
<path d="M1018 58 c5 -5 16 -8 23 -6 8 3 3 7 -10 11 -17 4 -21 3 -13 -5z"/>
</g>
</svg>
