<?xml version="1.0" standalone="no"?>
<!DOCTYPE svg PUBLIC "-//W3C//DTD SVG 20010904//EN"
 "http://www.w3.org/TR/2001/REC-SVG-20010904/DTD/svg10.dtd">
<svg version="1.0" xmlns="http://www.w3.org/2000/svg"
 width="260.000000pt" height="300.000000pt" viewBox="0 0 260.000000 300.000000"
 preserveAspectRatio="xMidYMid meet">

<g transform="translate(0.000000,300.000000) scale(0.100000,-0.100000)"
fill="#000000" stroke="none">
<path d="M739 2983 c-39 -24 -59 -65 -59 -122 l0 -50 -42 -11 c-274 -71 -568
-154 -586 -166 -12 -8 -30 -30 -39 -49 -15 -32 -14 -39 30 -217 26 -100 72
-276 102 -390 30 -114 55 -215 55 -224 0 -8 -22 -36 -48 -62 -36 -36 -50 -57
-55 -87 -4 -22 -7 -320 -7 -663 0 -677 -2 -649 57 -703 67 -63 -11 -59 1155
-59 1017 0 1065 1 1104 19 23 10 54 35 69 55 24 32 29 51 37 139 6 56 8 352 6
657 -4 624 0 585 -82 656 l-44 39 73 275 c41 151 89 333 106 403 30 123 31
130 16 162 -9 19 -27 41 -39 49 -13 9 -152 50 -308 92 -157 42 -291 81 -297
86 -7 6 -13 32 -13 60 0 45 -4 54 -39 89 l-39 39 -543 0 c-485 -1 -547 -2
-570 -17z m1109 -649 l2 -582 -32 -5 c-18 -2 -36 -3 -40 0 -5 2 -8 223 -8 491
0 268 -4 492 -8 497 -4 6 -20 15 -37 20 -19 7 -36 23 -46 45 -23 47 -37 49
-369 49 -303 0 -359 -5 -371 -31 -5 -10 -13 -26 -18 -35 -4 -10 -21 -22 -37
-28 -16 -5 -32 -14 -36 -20 -4 -5 -8 -158 -8 -340 0 -181 -3 -401 -7 -487 l-6
-158 -34 0 -33 0 -1 555 c-1 305 -2 561 -3 568 -1 6 2 20 6 30 8 16 42 17 546
15 l537 -3 3 -581z m-216 408 c9 -15 28 -34 42 -42 l26 -13 -2 -471 -3 -471
-35 -3 c-54 -4 -61 5 -51 68 10 63 0 143 -25 196 -28 60 -106 130 -171 154
-46 17 -73 21 -128 18 -188 -12 -316 -175 -285 -365 11 -66 5 -75 -50 -71
l-35 3 0 465 0 465 45 47 45 47 305 1 306 0 16 -28z m-954 -50 c4 -39 10 -36
-204 -92 -183 -48 -204 -58 -204 -100 0 -30 -20 -58 -56 -78 -18 -10 -17 -20
33 -214 29 -112 68 -261 87 -331 30 -111 33 -129 19 -134 -8 -3 -27 -2 -41 3
-24 8 -30 24 -69 169 -67 247 -163 620 -163 633 0 7 12 18 26 24 35 16 547
157 559 154 6 -1 11 -17 13 -34z m1765 -102 c37 -12 70 -27 73 -34 6 -14 -15
-101 -107 -446 -91 -339 -97 -358 -119 -365 -11 -4 -29 -4 -39 0 -18 6 -18 12
20 153 21 81 60 227 86 325 l46 179 -36 33 c-26 24 -37 43 -37 62 0 15 -4 33
-8 39 -4 7 -68 28 -142 49 -253 69 -238 63 -245 95 -4 16 -4 33 -1 38 5 8 336
-76 509 -128z m-1765 -100 c3 -65 0 -76 -21 -99 -43 -47 -42 -79 4 -124 17
-16 19 -35 19 -172 l0 -155 -36 -40 c-20 -22 -47 -66 -60 -97 l-23 -58 -53 3
c-29 2 -55 5 -57 8 -2 2 -41 142 -86 311 -72 267 -81 310 -69 324 8 9 23 33
33 55 l19 39 154 42 c84 23 158 40 163 39 6 -1 11 -36 13 -76z m1526 8 c40
-10 51 -18 61 -43 7 -16 22 -41 33 -55 l19 -25 -82 -308 c-45 -169 -84 -309
-86 -311 -2 -2 -28 -6 -57 -8 l-53 -3 -23 57 c-13 32 -38 74 -55 93 l-31 36 0
164 c0 108 4 166 11 171 6 3 17 20 24 37 14 33 7 67 -20 93 -10 11 -15 36 -15
79 0 99 -5 97 118 63 59 -16 129 -34 156 -40z m-772 -433 c23 -17 56 -53 73
-80 26 -41 30 -58 30 -114 -1 -36 -6 -78 -13 -93 l-12 -28 -127 -2 c-304 -4
-276 -7 -292 27 -53 110 6 258 123 311 20 9 57 13 103 11 61 -2 78 -7 115 -32z
m-761 -318 c-17 -17 -24 18 -9 45 l13 23 3 -29 c2 -16 -1 -33 -7 -39z m1279
17 c0 -8 -4 -14 -10 -14 -5 0 -10 9 -10 21 0 11 5 17 10 14 6 -3 10 -13 10
-21z m430 -99 c16 -8 38 -28 49 -44 20 -27 21 -42 21 -265 l0 -236 -412 0
-412 0 -63 -62 -63 -62 0 -150 0 -150 62 -63 62 -63 413 0 413 0 0 -119 c0
-113 -1 -121 -25 -149 -13 -16 -37 -35 -53 -41 -20 -9 -300 -11 -1085 -9
l-1057 3 -32 33 -33 32 0 645 0 644 29 30 c26 28 36 31 105 34 42 1 521 4
1064 5 857 2 992 0 1017 -13z m60 -820 l0 -195 -392 0 -392 0 -38 37 -38 37 0
120 0 120 37 38 37 38 393 0 393 0 0 -195z"/>
<path d="M1252 2587 c-45 -48 -11 -127 55 -127 33 0 73 42 73 78 0 63 -84 95
-128 49z"/>
<path d="M1160 1920 c-51 -50 -61 -70 -36 -70 7 0 25 -15 40 -34 14 -19 35
-38 47 -41 50 -16 102 22 114 83 8 46 21 62 49 62 29 0 46 -18 46 -50 0 -27
-27 -60 -48 -60 -17 0 -15 -30 2 -36 22 -8 54 13 71 46 9 18 23 30 35 30 11 0
20 5 20 10 0 18 -100 110 -120 110 -50 0 -100 -53 -100 -107 0 -11 -9 -28 -20
-38 -18 -17 -21 -17 -45 -1 -40 26 -32 77 16 101 18 10 26 20 23 30 -11 28
-45 15 -94 -35z"/>
<path d="M500 1603 l-194 -3 -28 -27 -28 -27 2 -156 3 -155 25 0 25 0 6 130
c4 72 7 138 8 148 1 16 35 17 559 18 306 1 629 4 717 8 l160 6 0 25 c0 24 -2
25 -90 31 -88 7 -778 7 -1165 2z"/>
<path d="M1724 950 c-66 -27 -86 -125 -36 -181 21 -24 39 -32 73 -36 41 -5 50
-2 82 27 103 90 8 241 -119 190z m86 -80 c15 -29 3 -59 -26 -66 -30 -8 -54 11
-54 40 0 46 59 64 80 26z"/>
</g>
</svg>
