<?xml version="1.0"?>
<svg xmlns:rdf="http://www.w3.org/1999/02/22-rdf-syntax-ns#" xmlns="http://www.w3.org/2000/svg" xmlns:cc="http://creativecommons.org/ns#" xmlns:dc="http://purl.org/dc/elements/1.1/" xmlns:svg="http://www.w3.org/2000/svg" id="svg4654" viewBox="0 0 209.68 339.85" version="1.1">
  <title id="title3921">Bourse</title>
  <path id="path3333" style="color:#000000" fill="#fff" d="m39.125 89.562c-10.538 14.384-8.2916 33.356-8.4375 50.219 1.1157 9.4413 0.32956 21.142 7.7812 28.094 5.9313 1.8916 12.786 1.1684 18.906 0.5 3.6529-3.479 1.0428-9.8899 1.0902-14.367-1.4587-15.121-6.9864-31.066-2.1214-46.008 1.6972-5.9661 6.0617-10.949 7.75-16.656-2.049-3.625-7.802-1.386-11.219-2.219-4.458 0.25899-9.7635-0.68112-13.75 0.4375z"/>
  <path id="path3335" style="color:#000000" fill="#f4d4c4" d="m155.69 121.44c-3.949-0.68197-9.7687 2.0343-7.4688 6.75 5.4986 7.7322 16.566 8.6438 25.375 8.7869 6.654 0.74711 9.5124-10.053 2.9691-12.349-6.493-2.6255-13.905-3.1924-20.875-3.1875z"/>
  <path id="path3337" style="color:#000000" fill="#f4d4c4" d="m184.69 96.906c-8.4478 2.3173-16.762 8.1257-20.844 16.031-1.9877 4.9657 5.3199 7.5741 9.125 6.125 7.8676-1.5313 18.704-5.8541 18.844-15.281-0.27952-3.5713-3.2537-7.287-7.125-6.875z"/>
  <path id="path3339" style="color:#000000" fill="#f4d4c4" d="m177.59 72.219c-6.8428 2.2842-13.173 7.2695-17.125 13.281-2.7328 4.8418 3.8167 9.6263 8.1875 6.7812 6.3214-2.7177 15.215-6.2133 16.188-13.938-0.12926-3.69-3.6014-6.5802-7.25-6.125z"/>
  <path id="path3341" style="color:#000000" fill="#f4d4c4" d="m157.12 137.94c-5.5627-1.4982-9.8469 6.7454-4.5 9.6562 5.7705 2.26 12.851 1.9479 18.719 0.28125 4.5016-2.0754 2.3198-9.65-2.6562-9.4375-3.8067-0.66242-7.7142-0.54109-11.562-0.5z"/>
  <path id="path3331" style="color:#000000" fill="#f4d4c4" d="m114.53 73c-16.278 1.188-28.824 12.774-40.28 23.188-4.8072 2.4774-11.988 2.5259-13.406 8.9062-3.4997 11.532-4.6392 25.131 0.84375 36.219 3.0477 6.4484 10.192 9.866 17.188 8.1562 6.8567-0.87742 17.478-3.4081 16.781-12.312-1.4829-5.289-7.8985-8.8444-9.5312-13.031 3.4118-0.12501 7.6124 2.1848 9.875-1.7188 8.5754-8.2533 16.438-21.688 30.062-20.531 11.623 1.5924 21.233 11.073 33.094 11.438 6.9061-1.068 9.9754-10.097 5.0625-15.156-11.3-13.518-28.25-23.041-45.81-25.096-1.29-0.1-2.59-0.127-3.88-0.062z"/>
  <path id="path4590" style="color:#000000" d="m120.62 106.19c-6.7721 4.7846-9.1642 14.035-11.188 21.781-3.9619 13.327-0.3158 29.303-8.6875 40.938-2.9206 3.2134-0.15321-6.7055-0.16-9.101 0.96772-9.2464 5.4674-18.819 4.035-28.086-2.7982-2.89-4.6087 3.7533-6.152 5.2596-18.134 31.739-38.047 63.65-45.879 99.709-1.0452 15.864-1.8962 32.27 2.0312 47.812 5.576 19.684 19.507 37.142 38.875 44.594 12.06 5.7624 25.451 6.1879 38.562 5.2812 32.968 0.64803 62.085-25.837 68.535-57.444 5.9165-29.347 3.6188-61.162-10.223-88.025-5.8037-11.364-11.792-23.606-21.531-31.938-5.3196-2.769-10.049 2.1794-13.031 5.9062-4.6147 2.5226-8.6289-3.98-10.188-7.5312-5.2378-9.9051-4.9094-22.97-13.188-31.094-4.2433-1.5446-4.7753 5.4255-5.5625 8.0625-0.82494 3.2535-1.0312 8.3462-2.3438 10.625-2.7989-11.899 0.33656-24.691-2.5-36.5-0.43215-0.26265-0.91329-0.3491-1.4062-0.25z" stroke="#000" stroke-width="8" fill="#c87137"/>
  <path id="path3325" style="color:#000000" fill="#c87137" d="m166.28 5.5c-6.9767 1.5208-11.479 12.131-19.594 8.3438-7.7498-1.8174-14.87-7.4302-22.906-7.2812-5.742 2.0903-4.3866 9.9915-7.4062 13.625-6.7296 1.8691-16.259-1.2832-21.031 5.0312-1.8439 3.2486 1.952 5.4266 4.9059 4.4638 7.4683-0.07485 16.002-0.80701 21.25 5.5674 5.1848 5.1472 12.804 1.1215 16.688-3.5625 2.5474-1.7767 6.0256-6.1938 9.0625-5.5625-4.8482 8.6841-14.754 12.151-23.25 16.062-4.0678 4.0426-1.5785 10.808-0.59375 15.656 2.1998 6.0009 4.8026 14.531 11.875 15.906 5.3486-0.27497 4.0703-7.591 4.1875-11.219 3.7065 7.3585 4.5662 18.578 13.062 22.094 7.926 1.6869 12.298-6.6875 13.448-13.278 0.72975-8.6579 6.4094-15.059 11.67-21.5 4.5315-7.1547 10.435-14.311 12.007-22.753-1.5298-3.9619-7.0901-0.63475-8.8125 1.5938-4.9114 3.6466-7.2956 11.412-10.375 15-3.3412-6.6226-13.036-2.6117-15.031 3.125-2.0876 6.4746-2.9265-2.9433-3.5938-5.5625-1.2857-2.9419 0.32734-5.4787 3.4688-5.5312 9.9467-2.8414 19.683-8.5577 25.75-16.938 1.18-5.864-5.31-10.657-10.18-12.531-1.47-0.514-3.03-0.9908-4.6-0.75z"/>
  <path id="path3327" style="color:#000000" fill="#c87137" d="m87.594 27.906c-4.8787 0.43818-3.0348 6.8439-0.96875 9.4062 7.0321 10.262 15.486 20.381 26.688 26.156 5.3187 2.8849 10.37-3.4938 9-8.6875-0.69634-7.9448-1.2889-18.141-8.4375-23.062-4.4996-1.9945-8.1914 3.0114-10.906 5.8438-4.2174-4.275-8.7608-9.9322-15.375-9.6562z"/>
  <path id="path3102" d="m110.19 338.51c-17.953-3.2577-28.742-8.7892-40.879-20.959-10.242-10.27-15.709-19.83-19.479-34.062-4.6818-17.674-3.4794-42.469 3.1399-64.752 3.4007-11.448 10.548-27.989 14.846-34.357 1.6671-2.4701 3.031-4.884 3.031-5.3642 0-0.4803 1.0617-2.1452 2.3593-3.6999 3.2193-3.8571 5.851-9.1775 5.1226-10.356-0.33-0.5338-2.8221-0.9706-5.538-0.9706-4.2499 0-5.4844 0.4935-8.8576 3.541-3.6496 3.2972-4.4466 3.5663-11.573 3.9084-7.7255 0.3709-11.513 2.0759-11.513 5.1825 0 3.2307-4.736 4.5888-16.433 4.7123-10.723 0.1132-11.601-0.027-13.946-2.231-6.4741-6.082-11.433-30.845-10.306-51.466 1.0207-18.684 5.5905-37.372 11.218-45.875l2.4963-3.7721h14.986c14.032 0 15.124 0.13779 17.15 2.1643 2.4605 2.4605 7.7884 3.7288 15.931 3.7921 4.2637 0.0332 6.0202 0.51337 7.3819 2.018 3.9207 4.3323 6.1466 3.7804 16.023-3.9733 3.3-2.5907 9.2625-6.8668 13.25-9.5025s7.25-5.3477 7.25-6.0267c0-0.67902-1.4625-2.358-3.25-3.731-6.2354-4.7895-16.126-15.285-19.916-21.135-7.333-11.317-6.9688-15.946 1.5797-20.078 5.6972-2.7538 10.937-4.0155 20.781-5.0037l6.6944-0.67203 1.1223-5.4063c1.2683-6.109 4.0422-8.9906 9.6714-10.047 4.7265-0.8867 15.314 2.0907 20.314 5.7127 4.7261 3.4236 5.9098 3.5357 9.2864 0.87963 4.6609-3.6662 13.054-6.9723 17.717-6.9786 5.6445-0.008 10.118 2.6291 13.47 7.9393 2.0823 3.2985 3.2686 4.1416 6.5701 4.6696 2.216 0.35434 5.1384 1.5169 6.4944 2.5835 6.6488 5.23-0.4143 21.832-16.844 39.591-3.2042 3.4636-5.6458 6.8372-5.4259 7.497s3.2759 2.8251 6.7911 4.8117c10.133 5.7269 11.63 9.038 8.8998 19.69l-1.3368 5.2157 3.1399 3.2442c3.9983 4.1312 6.2148 9.4314 5.5025 13.158-0.3279 1.715-2.5762 4.8392-5.4664 7.5958l-4.9094 4.6826 1.6922 3.5484c2.2483 4.7149 1.2607 8.2716-3.5741 12.871-3.5415 3.3689-3.8006 3.9828-3.2896 7.7928 0.5075 3.7838 0.2541 4.4043-2.9781 7.2908l-3.5327 3.155 2.5914 4.075c1.4252 2.2413 3.6295 5.2247 4.8984 6.6298 1.2688 1.4051 2.307 2.8991 2.307 3.32s1.9603 3.9962 4.3562 7.9453c20.408 33.638 26.125 76.583 14.594 109.64-9.2727 26.588-30.528 45.597-57.125 51.085-10.81 2.2307-25.725 2.4232-36.484 0.471zm40.158-7.4909c20.416-6.4952 34.736-19.267 43.937-39.189 5.7269-12.4 7.6419-21.431 8.2651-38.981 0.8861-24.952-3.2716-43.776-14.878-67.36-6.0824-12.36-16.858-27.219-20.378-28.103-3.0027-0.75364-7.5827 1.4916-9.0508 4.4371-2.0563 4.1254-2.8872 4.4212-6.9821 2.4852-4.9641-2.3469-8.0466-8.4012-11.863-23.3-2.8308-11.051-5.3578-16.02-8.1472-16.02-1.9679 0-3.2156 3.6568-4.0055 11.739-0.8785 8.9898-1.643 10.342-3.9003 6.8968-1.5585-2.3786-1.6783-4.4026-1.0895-18.404 0.7415-17.635 0.099-20.552-3.5734-16.232-5.9443 6.992-9.7068 20.123-10.459 36.5-0.625 13.608-2.405 20.503-6.3611 24.643-1.5017 1.5715-3.0192 2.8572-3.3722 2.8572-1.0139 0-0.7471-8.1571 0.3927-12.007 1.8652-6.2994 5.8609-27.354 5.3485-28.183-1.1698-1.8928-2.5664-0.39615-6.0087 6.4395-3.2956 6.5442-7.3106 13.731-19.694 35.25-11.401 19.813-22.28 47.081-24.734 62-1.6843 10.238-1.4719 32.602 0.3899 41.052 3.4708 15.753 8.3431 25.747 17.234 35.35 9.4102 10.164 20.989 16.413 36.43 19.661 10.181 2.1416 33.605 1.2963 42.5-1.5336zm-92.329-167.03c0.5106-2.3883-0.1918-8.6943-2.2115-19.853-1.6279-8.9942-2.9598-19.417-2.9598-23.161 0-8.6473 2.7287-17.477 7.4177-24.004 2.0043-2.7899 3.3787-5.5021 3.0542-6.0272-0.3244-0.52503-5.6378-0.9546-11.808-0.9546h-11.218l-2.6874 4.1446c-4.3618 6.7269-6.1941 17.095-6.1598 34.855 0.037 18.936 2.3538 33.044 6.0314 36.722 2.1687 2.1687 3.0491 2.3331 11.074 2.067l8.7179-0.289zm27.104-17.003c7.2272-2.2323 8.4246-3.2445 9.3579-7.9109 0.5831-2.9155 0.1714-3.6707-4.3087-7.9047-2.7244-2.5747-5.2542-5.4858-5.6219-6.4691-0.8675-2.3201 1.4504-3.236 4.3128-1.7041 3.5287 1.8885 6.1938 0.34758 11.394-6.5881 8.9902-11.99 18.041-17.225 27.362-15.827 2.3579 0.35358 9.1061 3.1253 14.996 6.1594 12.363 6.3687 16.677 7.0583 20.672 3.3048 4.4614-4.1913 2.936-9.6956-4.6124-16.644-12.555-11.556-30.161-19.414-43.499-19.414-10.129 0-22.968 6.7615-34.722 18.286-5.4675 5.3609-7.2925 6.5426-10.839 7.0183-6.0789 0.81535-8.2358 3.7567-9.6303 13.133-2.0248 13.614-0.9094 23.286 3.444 29.864 4.4761 6.7639 10.662 8.1025 21.694 4.695zm86.525-0.19683c1.8371-1.8371 1.4279-5.6077-0.7343-6.7648-1.0638-0.56935-5.5734-1.0352-10.021-1.0352-7.6524 0-8.1483 0.13419-9.2244 2.4959-0.9397 2.0623-0.8221 2.8441 0.6764 4.5 1.5321 1.6929 3.0782 2.0041 9.9587 2.0041 5.0017 0 8.6081-0.46311 9.345-1.2zm6.7599-13.251c1.9218-2.933 1.1828-6.0162-1.9309-8.0564-1.2206-0.79978-6.699-1.9546-12.174-2.5662-12.139-1.356-15.767-0.45894-15.271 3.7752 0.5541 4.7298 10.858 9.0344 22.043 9.209 5.0257 0.0785 5.9235-0.21067 7.3329-2.3616zm-0.5599-16.76c7.8858-2.324 13-7.403 13-12.911 0-2.8973-2.7566-5.8842-5.405-5.8564-5.7141 0.0599-16.862 7.8639-20.135 14.096-1.0812 2.0588-1.117 2.9414-0.1675 4.135 2.2455 2.8229 4.6101 2.9227 12.707 0.53647zm-3.8262-27.962c6.6058-3.5209 9.8262-6.9261 9.8262-10.39 0-2.9016-2.4896-5.4366-5.3393-5.4366-4.5335 0-17.661 10.78-17.661 14.503 0 5.3267 4.7651 5.8056 13.174 1.3238zm-15.248-6.2883c3.2424-1.6767 5.3121-6.1758 7.1586-15.561 1.0316-5.2434 2.0382-7.2766 5.4252-10.958 4.8434-5.2637 8.7301-10.916 13.832-20.116 4.5346-8.1764 4.7447-10.371 0.9082-9.4876-3.7826 0.87088-9.6347 7.5606-12.355 14.123-1.2449 3.0035-2.5584 5.4608-2.9189 5.4608s-1.168-1.125-1.7945-2.5c-2.4354-5.345-11.986-1.1118-13.801 6.1167-0.329 1.3108-0.9409 2.3833-1.3598 2.3833-1.0503 0-3.2748-8.2754-3.4103-12.686-0.1091-3.551-0.011-3.6471 4.8887-4.7849 2.75-0.63865 6.5844-1.9213 8.521-2.8503 4.3169-2.0709 15.512-11.02 16.276-13.01 1.0665-2.7793-2.6405-8.0888-7.2971-10.452-5.7399-2.9124-8.2443-2.3149-14.034 3.3483-5.7771 5.6505-8.2406 5.7091-20.464 0.48679-5.0826-2.1715-10.386-4.2355-11.785-4.5866-3.591-0.90129-6.2832 2.1544-7.1816 8.1513-0.4024 2.686-1.25 5.2142-1.8835 5.6183-0.6336 0.40407-4.527 0.74821-8.652 0.76474-8.3682 0.0335-12.348 1.4926-12.809 4.6968-0.2988 2.074 0 2.1404 9.0422 1.975 9.9745-0.18259 11.774 0.42674 17.157 5.8093 4.0407 4.0407 9.0837 2.8855 15.11-3.4612 4.3927-4.626 9.3993-7.5199 10.722-6.1974 2.6592 2.6593-9.0201 13.15-17.416 15.643-2.7848 0.827-5.6804 2.0158-6.4347 2.6418-3.439 2.8541 0.1712 19.494 5.6718 26.143 5.5703 6.733 9.7025 3.8737 8.4849-5.8712-1.0464-8.3751 0.83-6.412 4.3522 4.5533 4.6359 14.432 8.8912 18.306 16.045 14.606zm-38.451-21.86c2.6889-4.1038-0.4319-21.875-4.6254-26.339-3.0689-3.2667-5.5602-2.9264-9.5504 1.3044l-3.437 3.6442-3.0211-3.6651c-4.817-5.8439-12.802-8.7728-14.174-5.1987-1.0882 2.8358 4.6511 11.725 13.176 20.407 11.631 11.845 18.326 14.893 21.632 9.8473z"/>
  <path id="path3026" d="m90.519 229.62c5.0746 1.1405 9.4327 1.9299 13.196 2.4945 1.3389-2.7418 3.1454-5.3946 5.0054-8.0122 1.9353-2.7517 3.941-5.4567 5.6828-8.1711 1.7418-2.7145 3.2142-5.451 4.4634-8.0447 1.2051-2.559 2.2366-4.9467 3.3683-6.7938 1.1318-1.8471 2.3843-3.1256 3.8792-3.551 0.18358-0.0828 0.36992-0.15694 0.55904-0.22263 1.2462-0.43087 2.6126-0.48528 4.0863-0.29081 1.4736 0.19447 3.0506 0.63279 4.8056 1.0358 1.5475 0.35496 3.2372 0.67376 5.1912 0.72936 1.9539 0.0556 4.1763-0.15821 6.8101-0.80237 0.30511 1.0585 0.82071 2.3832 1.2738 3.7874 0.45307 1.4042 0.83394 2.8905 0.8187 4.23-0.0152 1.3394-0.43914 2.5328-1.4665 3.2821-1.0274 0.74923-2.6741 1.0648-4.8051 0.51412-2.2212 0.20734-4.2155 0.28022-5.9841 0.29856-2.34 0.009-4.2943-0.0516-5.9462 0.0869-1.6519 0.13852-3.0037 0.4855-4.1462 1.2186-1.1298 0.75993-2.127 1.9424-3.1156 3.5857-0.73745 1.3001-1.4612 2.8153-2.1974 4.4566s-1.4863 3.4075-2.2082 5.2402c-0.81029 2.0212-1.6027 4.114-2.2446 6.2388-0.22331 0.72594-0.42789 1.4557-0.60731 2.1885 0.12793 0.0158 0.25498 0.0308 0.38117 0.0449 2.2623 0.26361 4.2432 0.30772 6.1235 0.2637 1.8803-0.044 3.6613-0.1755 5.5952-0.32109 0.81754-0.0436 1.6913-0.10225 2.6384-0.1709 2.9878-0.28776 6.7161-0.82204 11.537-1.7672 1.9916-0.40184 4.1699-0.88466 6.5432-1.4593-0.34284 3.3776-0.92704 6.7136-1.6946 10.01-1.0913 0.20591-2.1392 0.39825-3.1448 0.5769-3.3907 0.58454-6.3034 1.0362-8.8288 1.3732-2.5254 0.33703-4.6635 0.5584-6.5531 0.6673-2.1513 0.16672-4.1452 0.2535-6.2474 0.28331-2.1022 0.0298-4.3118 0.003-6.8666-0.0984h-0.00001c-0.586-0.022-1.19-0.0506-1.8145-0.0859-0.62935 2.4157-1.0116 5.2364-0.24275 7.2073 0.30276 0.78665 0.78278 1.4348 1.4609 1.8539 0.89335 0.56634 2.1416 0.72446 3.7346 0.2224 3.6497 0.11503 6.7662 0.0645 10.207-0.19525 1.9321-0.10965 4.0872-0.33223 6.5885-0.64608 2.5012-0.31386 5.3487-0.71792 8.6241-1.192-0.75999 2.4534-1.5647 4.8849-2.3686 7.3168-0.27621 0.84349-0.55529 1.682-0.83478 2.517-4.8545 0.63126-8.6827 1.1698-11.94 1.3586-4.6309 0.35341-8.8104 0.22942-14.263-0.21077h-0.00001c-0.26603-0.0207-0.53506-0.0425-0.80725-0.0653 0.18855 1.0993 0.45122 2.1885 0.77592 3.2656 0.51959 1.7647 1.2007 3.5005 1.9979 5.1965 0.79712 1.696 1.7095 3.3547 2.7199 4.929 1.0903 1.6944 2.3056 3.2821 3.6404 4.6372 1.894 1.896 4.028 3.3232 6.3498 3.815 1.1629 0.25757 2.3909 0.27825 3.672 0.0669 3.2944-0.20579 6.8474-1.5079 10.752-2.8847 2.2289-0.7962 4.5946-1.6119 7.168-2.3303 2.5734-0.71846 5.3584-1.3353 8.3924-1.9451 0.40244 2.1866 0.74741 4.4353 1.0934 6.7244 0.18078 1.2008 0.36436 2.4133 0.55458 3.6288-1.5409 0.0859-2.9495 0.21484-4.2666 0.46352-1.3172 0.24867-2.5442 0.61684-3.7307 1.119-2.373 1.0043-4.6025 2.5712-6.9668 4.2802-2.2725 1.6419-4.6781 3.3716-7.1976 4.7076-2.5195 1.3361-5.1407 2.265-7.7246 2.6102-0.19413 0.0261-0.38801 0.049-0.58157 0.0689-1.6074 0.0484-3.2194-0.26039-4.7744-0.8887-1.555-0.62832-3.0519-1.5736-4.4559-2.7358-2.8079-2.3245-5.2207-5.48-7.3195-8.6222-0.47946-0.70795-0.94525-1.4176-1.3997-2.1243-1.8815-2.9171-3.6342-5.7347-5.3301-8.4309h-0.00001c-0.88298-1.4226-1.7321-2.833-2.5061-4.2624-0.41257-0.76418-0.8056-1.5313-1.1708-2.3053-0.87725-0.8258-1.4159-1.9215-1.8056-3.103-0.38973-1.1815-0.62957-2.4485-0.96569-3.6081-0.33611-1.1596-0.76719-2.212-1.6076-2.9575-0.84046-0.74546-2.0844-1.1888-4.169-1.0961-4.3607-0.3261-9.2963-0.59123-14.91-0.68792 0.35661-0.88133 0.73559-1.7491 1.1338-2.6044 1.1394-2.4467 2.4331-4.799 3.8522-7.0832 4.7917 0.50095 9.0324 0.96466 12.801 1.3756-0.0047-0.52494 0.04854-1.1028 0.1237-1.7075 0.22688-1.872 0.68305-3.9835 0.12785-5.6091-0.2776-0.81281-0.80956-1.5052-1.8129-1.999-1.0034-0.49387-2.4719-0.78994-4.7484-0.82157-0.60315-0.22403-1.552-0.36735-2.6445-0.49362-1.0925-0.12626-2.3305-0.23545-3.4639-0.38375-2.2668-0.29659-4.1052-0.76016-3.1269-1.7471 2.3615-2.5577 4.8286-5.0139 7.2778-7.4379z"/>
  <metadata>
    <rdf:RDF>
      <cc:Work>
        <dc:format>image/svg+xml</dc:format>
        <dc:type rdf:resource="http://purl.org/dc/dcmitype/StillImage"/>
        <cc:license rdf:resource="http://creativecommons.org/licenses/publicdomain/"/>
        <dc:publisher>
          <cc:Agent rdf:about="http://openclipart.org/">
            <dc:title>Openclipart</dc:title>
          </cc:Agent>
        </dc:publisher>
        <dc:title>Sac euro</dc:title>
        <dc:date>2012-05-02T08:37:14</dc:date>
        <dc:description>(Remix de http://openclipart.org/detail/169766/money-bag-by-grin)\n\nSac d'argent.\nMoney bag.</dc:description>
        <dc:source>http://openclipart.org/detail/169802/sac-euro-by-mathafix</dc:source>
        <dc:creator>
          <cc:Agent>
            <dc:title>mathafix</dc:title>
          </cc:Agent>
        </dc:creator>
        <dc:subject>
          <rdf:Bag>
            <rdf:li>argent</rdf:li>
            <rdf:li>bag</rdf:li>
            <rdf:li>bourse</rdf:li>
            <rdf:li>cash</rdf:li>
            <rdf:li>clip art</rdf:li>
            <rdf:li>clipart</rdf:li>
            <rdf:li>euro</rdf:li>
            <rdf:li>money</rdf:li>
            <rdf:li>sac</rdf:li>
          </rdf:Bag>
        </dc:subject>
      </cc:Work>
      <cc:License rdf:about="http://creativecommons.org/licenses/publicdomain/">
        <cc:permits rdf:resource="http://creativecommons.org/ns#Reproduction"/>
        <cc:permits rdf:resource="http://creativecommons.org/ns#Distribution"/>
        <cc:permits rdf:resource="http://creativecommons.org/ns#DerivativeWorks"/>
      </cc:License>
    </rdf:RDF>
  </metadata>
</svg>
